<?xml version="1.0" encoding="utf-8"?>
<!-- Generator: Adobe Illustrator 23.0.2, SVG Export Plug-In . SVG Version: 6.00 Build 0)  -->
<svg version="1.1" id="Layer_1" xmlns="http://www.w3.org/2000/svg" xmlns:xlink="http://www.w3.org/1999/xlink" x="0px" y="0px"
	 viewBox="0 0 57.1 50.5" style="enable-background:new 0 0 57.1 50.5;" xml:space="preserve">
<style type="text/css">
	.st0{fill:none;}
	.st1{fill:#AADA33;}
</style>
<title>respiratory-logo</title>
<g>
	<path class="st0" d="M47.2,20L47.2,20c0.1-2.5-0.8-4.8-2.4-6.6c-1.9-1.9-4.7-2.9-8.3-2.9h-13v28.3h6.3v-9.1h4.9l6.1,9.1H48
		l-6.9-10.1C44.9,27.6,47.4,24,47.2,20z"/>
	<g>
		<path class="st0" d="M47.2,20L47.2,20c0.1-2.5-0.8-4.8-2.4-6.6c-1.9-1.9-4.7-2.9-8.3-2.9h-13v28.3h6.2v-9.1h4.9l6.1,9.1v0h7.3
			l-6.9-10.1C44.9,27.6,47.4,24,47.2,20z"/>
		<g>
			<polygon class="st0" points="53,11.4 53,38.9 53.1,38.9 53,11.4 			"/>
			<path class="st0" d="M43.2,20L43.2,20c0.1-2.5-0.8-4.8-2.4-6.6c-1.9-1.9-4.7-2.9-8.3-2.9h-13v28.3h6.2v-9.1h4.9l6.1,9.1v0h7.3
				l-6.9-10.1C40.9,27.6,43.4,24,43.2,20z"/>
			<path class="st1" d="M53,11.4C48.5,4.6,40.7,0,31.9,0h-6.7C11.3,0,0,11.3,0,25.2c0,13.9,11.3,25.2,25.2,25.2h6.7
				c8.9,0,16.7-4.6,21.2-11.5H53V11.4z M34.8,38.9L34.8,38.9l-6.1-9.1h-4.9v9.1h-6.2V10.6h13c3.6,0,6.4,1,8.3,2.9
				c1.7,1.7,2.5,4.1,2.4,6.5V20c0.2,4-2.3,7.6-6.1,8.8l6.9,10.1H34.8z"/>
			<path class="st1" d="M53,11.4l0.1,27.5c2.6-3.9,4-8.6,4-13.7C57.1,20.1,55.6,15.4,53,11.4z"/>
			<polygon class="st1" points="53,10.6 53,11.4 53,11.4 			"/>
		</g>
	</g>
	<path class="st1" d="M30,16.2h-6.2v8.1h6.3c3,0,4.8-1.6,4.8-4l0,0C34.9,17.6,33,16.2,30,16.2z"/>
</g>
</svg>
