<?xml version="1.0" encoding="utf-8"?>
<!-- Generator: Adobe Illustrator 23.0.2, SVG Export Plug-In . SVG Version: 6.00 Build 0)  -->
<svg version="1.1" id="Layer_1" xmlns="http://www.w3.org/2000/svg" xmlns:xlink="http://www.w3.org/1999/xlink" x="0px" y="0px"
	 viewBox="0 0 337.1 80.2" style="enable-background:new 0 0 337.1 80.2;" xml:space="preserve">
<style type="text/css">
	.st0{fill:#6D6E71;}
	.st1{fill:#AADA33;}
	.st2{fill:none;}
</style>
<title>respiratory-logo</title>
<path class="st0" d="M84.6,0.4h5.9v16.1h10.3v5.2H84.6V0.4z"/>
<path class="st0" d="M102.9,0.4h17v5h-11.2v3.2h10.2v4.6h-10.2v3.4h11.4v5h-17.2V0.4z"/>
<path class="st0" d="M127.8,5.5h-6.4V0.4h18.6v5.2h-6.4v16.1h-5.9V5.5z"/>
<path class="st0" d="M141,9.1c2-0.2,3.1-1.2,3-2.8h-2.3V0.4h6v4.8c0,4.5-2.4,6-6.2,6.2L141,9.1z"/>
<path class="st0" d="M148.7,18.4l3.3-3.9c1.9,1.6,4.4,2.5,6.9,2.5c1.6,0,2.4-0.6,2.4-1.5v-0.1c0-0.9-0.7-1.4-3.6-2
	c-4.5-1-8-2.3-8-6.7V6.8c0-3.9,3.1-6.8,8.2-6.8c3.2-0.1,6.3,0.9,8.7,2.8L163.8,7c-1.7-1.3-3.8-2-5.9-2.1c-1.4,0-2.1,0.6-2.1,1.4v0.1
	c0,1,0.7,1.4,3.7,2.1c4.9,1.1,7.9,2.6,7.9,6.6v0.1c0,4.3-3.4,6.9-8.6,6.9C155,22.1,151.5,20.8,148.7,18.4z"/>
<path class="st0" d="M182.8,5.5h-6.4V0.4h18.6v5.2h-6.4v16.1h-5.9L182.8,5.5L182.8,5.5z"/>
<path class="st0" d="M201.8,0.2h5.7l9,21.4h-6.3l-1.5-3.8h-8.2l-1.5,3.8h-6.2L201.8,0.2z M206.9,13.2l-2.4-6l-2.4,6H206.9
	L206.9,13.2z"/>
<path class="st0" d="M218.1,0.4h5.9v16.1h10.3v5.2h-16.2V0.4z"/>
<path class="st0" d="M236.3,0.4h5.9V9l7.3-8.6h7l-8,9.1l8.3,12.1h-7.1l-5.3-7.9l-2.2,2.4v5.5h-5.9L236.3,0.4L236.3,0.4z"/>
<polygon class="st1" points="185.7,56.8 193.2,56.8 189.5,47.6 "/>
<path class="st1" d="M117.5,46h-4.8v8.7h4.9c3.1,0,4.9-1.9,4.9-4.3v-0.1C122.6,47.5,120.6,46,117.5,46z"/>
<path class="st1" d="M159.9,46h-6.2v8.1h6.3c3,0,4.8-1.6,4.8-4l0,0C164.8,47.4,163,46,159.9,46z"/>
<path class="st1" d="M242,45.6c-5,0-8.5,4-8.5,8.8v0.1c-0.2,4.8,3.6,8.7,8.3,8.9c0.1,0,0.2,0,0.3,0c5,0,8.5-4,8.5-8.8v-0.1
	c0.2-4.8-3.6-8.7-8.3-8.9C242.2,45.6,242.1,45.6,242,45.6z"/>
<path class="st1" d="M275.1,46h-6.2v8.1h6.3c3,0,4.8-1.6,4.8-4l0,0C280,47.4,278.1,46,275.1,46z"/>
<path class="st2" d="M171.1,49.8L171.1,49.8c0.1-2.5-0.8-4.8-2.4-6.6c-1.9-1.9-4.7-2.9-8.3-2.9h-13v28.3h6.2v-9.1h4.9l6.1,9.1h7.3
	L165,58.6C168.8,57.4,171.3,53.8,171.1,49.8z"/>
<path class="st2" d="M118,40.3h-11.6v28.3h6.2v-8.5h4.7c6.4,0,11.5-3.4,11.5-10v-0.1C128.9,44.4,124.8,40.3,118,40.3z"/>
<rect x="134" y="40.4" class="st2" width="6.2" height="28.3"/>
<polygon class="st2" points="186.7,40.2 174.5,68.7 180.9,68.7 183.5,62.3 195.5,62.3 198.1,68.7 204.6,68.7 192.4,40.2 "/>
<polygon class="st2" points="202.1,46.1 210.7,46.1 210.7,68.7 216.9,68.7 216.9,46.1 225.5,46.1 225.5,40.4 202.1,40.4 "/>
<path class="st2" d="M91.9,51.7c-4.9-1.2-6.1-1.9-6.1-3.7v-0.1c0-1.4,1.2-2.5,3.6-2.5c2.7,0.2,5.3,1.1,7.4,2.8l3.2-4.7
	c-3-2.4-6.7-3.7-10.5-3.6c-5.8,0-9.9,3.4-9.9,8.5v0.1c0,5.6,3.7,7.2,9.4,8.7c4.7,1.2,5.7,2,5.7,3.6v0.1c0,1.7-1.5,2.7-4.1,2.7
	c-3.1-0.1-6.1-1.3-8.5-3.4l-3.7,4.4c3.3,2.9,7.6,4.5,12,4.5c6.1,0,10.4-3.2,10.4-8.8v-0.1C100.8,55.3,97.6,53.2,91.9,51.7z"/>
<polygon class="st2" points="59.2,57.2 72.6,57.2 72.6,51.7 59.2,51.7 59.2,45.9 74.4,45.9 74.4,40.4 53,40.4 53,68.7 74.6,68.7 
	74.6,63.2 59.2,63.2 "/>
<path class="st2" d="M47.2,49.8L47.2,49.8c0.1-2.5-0.8-4.8-2.4-6.6c-1.9-1.9-4.7-2.9-8.3-2.9h-13v28.3h6.3v-9.1h4.9l6.1,9.1H48
	l-6.9-10.1C44.9,57.3,47.4,53.7,47.2,49.8z"/>
<path class="st2" d="M269.2,40.3h-6.5v11C265.8,48.3,268,44.5,269.2,40.3z"/>
<path class="st2" d="M286.3,49.8L286.3,49.8c0-1.6-0.3-3.2-1-4.6c-1.5,6.3-5.4,11.8-10.9,15.3l5.5,8.2h7.3l-6.9-10.1
	C284,57.3,286.5,53.7,286.3,49.8z"/>
<polygon class="st2" points="302.3,51.7 295.5,40.4 288.2,40.4 299.1,57.5 299.1,68.7 305.4,68.7 305.4,57.4 316.2,40.4 309.2,40.4 
	"/>
<path class="st2" d="M244.7,58.7h0.2c4.3,0,8.5-1.1,12.2-3.1c0-0.3,0-0.7,0-1v-0.1c0-8.1-6.3-14.6-15-14.6S227,46.5,227,54.6v0.1
	c0,8.1,6.3,14.6,15,14.6c4.7,0.1,9.1-2,12-5.6C250.6,62.6,247.4,61,244.7,58.7z"/>
<path class="st2" d="M262.7,68.7h6.2v-5.5c-2,0.7-4.1,1.1-6.2,1.3L262.7,68.7L262.7,68.7z"/>
<path class="st1" d="M261,14.1c4.8,4,7.9,9.6,8.9,15.7h14.3C280.3,20.3,271.2,14.2,261,14.1z"/>
<path class="st1" d="M311.9,29.8H25.2C11.3,29.8,0,41.1,0,55s11.3,25.2,25.2,25.2h286.6c13.9,0,25.2-11.3,25.2-25.2
	S325.8,29.8,311.9,29.8z M40.8,68.7l-6.1-9.1h-4.9v9.1h-6.2V40.3h13c3.6,0,6.4,1,8.3,2.9c1.7,1.7,2.5,4.1,2.4,6.5v0.1
	c0.2,4-2.3,7.6-6.1,8.8l6.9,10.1L40.8,68.7L40.8,68.7z M74.6,68.7H53V40.3h21.4v5.6H59.2v5.8h13.4v5.6H59.2v6h15.4L74.6,68.7
	L74.6,68.7z M100.8,60.3c0,5.6-4.3,8.8-10.4,8.8c-4.4,0-8.7-1.6-12-4.5l3.7-4.4c2.3,2.1,5.3,3.4,8.5,3.4c2.6,0,4.1-1,4.1-2.7v-0.1
	c0-1.6-1-2.4-5.7-3.6c-5.7-1.5-9.4-3-9.4-8.7v-0.1c0-5.1,4.1-8.5,9.9-8.5c3.8-0.1,7.5,1.2,10.5,3.6l-3.2,4.7
	c-2.1-1.7-4.7-2.6-7.4-2.8c-2.4,0-3.6,1.1-3.6,2.5V48c0,1.9,1.2,2.5,6.1,3.7C97.6,53.2,100.9,55.3,100.8,60.3L100.8,60.3L100.8,60.3
	z M128.9,50.2c0,6.6-5.1,10-11.5,10h-4.7v8.5h-6.2V40.3H118C124.8,40.3,128.9,44.3,128.9,50.2L128.9,50.2L128.9,50.2z M140.2,68.7
	H134V40.3h6.2C140.2,40.3,140.2,68.7,140.2,68.7z M164.7,68.7l-6.1-9.1h-4.9v9.1h-6.2V40.3h13c3.6,0,6.4,1,8.3,2.9
	c1.7,1.7,2.5,4.1,2.4,6.5v0.1c0.2,4-2.3,7.6-6.1,8.8l6.9,10.1L164.7,68.7L164.7,68.7z M198.1,68.7l-2.6-6.4h-12l-2.6,6.4h-6.4
	l12.1-28.5h5.8l12.1,28.5H198.1L198.1,68.7z M225.5,46.1h-8.6v22.6h-6.2V46.1H202v-5.7h23.5L225.5,46.1L225.5,46.1z M242,69.1
	c-8.7,0-15-6.5-15-14.6v-0.1c0-8.1,6.4-14.7,15.1-14.7s15,6.5,15,14.6v0.1c0,0.3,0,0.7,0,1c-0.2,2.9-1.3,5.7-3.1,8
	C251.1,67.1,246.7,69.2,242,69.1L242,69.1z M279.9,68.7l-5.5-8.2l-0.6-0.9h-4.9v9.1h-6.2V40.3h13c3.6,0,6.4,1,8.3,2.9
	c0.6,0.6,1.1,1.3,1.4,2c0.7,1.4,1,2.9,1,4.5v0.1c0.2,4-2.3,7.6-6.1,8.8l6.9,10.1L279.9,68.7L279.9,68.7z M305.4,57.4v11.3h-6.2V57.5
	l-10.9-17.2h7.3l6.8,11.4l6.9-11.4h7.1L305.4,57.4z"/>
<path class="st1" d="M36,46h-6.2v8.1h6.3c3,0,4.8-1.6,4.8-4l0,0C40.9,47.4,39,46,36,46z"/>
</svg>
