<svg id="Layer_1" data-name="Layer 1" xmlns="http://www.w3.org/2000/svg" viewBox="0 0 337.08 80.24"><defs><style>.cls-1{fill:#fff;}.cls-2{fill:#aada33;}.cls-3{fill:none;}</style></defs><title>respiratory-logo</title><path class="cls-1" d="M134.72,53.29h5.88V69.37h10.28v5.16H134.72V53.29Z" transform="translate(-50.12 -52.93)"/><path class="cls-1" d="M153,53.29H170v5H158.78v3.22H169v4.64H158.78v3.37h11.41v5H153V53.29Z" transform="translate(-50.12 -52.93)"/><path class="cls-1" d="M177.92,58.45h-6.37V53.29h18.63v5.16H183.8V74.52h-5.88V58.45Z" transform="translate(-50.12 -52.93)"/><path class="cls-1" d="M191.11,62.06c2-.21,3.13-1.21,3-2.85h-2.31V53.29h6v4.82c0,4.49-2.43,6-6.22,6.16Z" transform="translate(-50.12 -52.93)"/><path class="cls-1" d="M198.85,71.37l3.28-3.91A10.94,10.94,0,0,0,209,70c1.58,0,2.43-.55,2.43-1.46V68.49c0-.88-0.7-1.36-3.58-2-4.52-1-8-2.31-8-6.67V59.72c0-3.94,3.12-6.79,8.22-6.79a13.37,13.37,0,0,1,8.74,2.82l-2.94,4.16a10.65,10.65,0,0,0-5.95-2.09c-1.43,0-2.12.61-2.12,1.37v0.06c0,1,.73,1.4,3.67,2.06,4.88,1.06,7.92,2.64,7.92,6.61V68c0,4.34-3.43,6.92-8.58,6.92A14.83,14.83,0,0,1,198.85,71.37Z" transform="translate(-50.12 -52.93)"/><path class="cls-1" d="M232.91,58.45h-6.37V53.29h18.63v5.16H238.8V74.52h-5.88V58.45Z" transform="translate(-50.12 -52.93)"/><path class="cls-1" d="M251.9,53.14h5.67l9,21.39H260.3l-1.55-3.79h-8.19l-1.52,3.79h-6.19Zm5.16,13-2.37-6-2.4,6h4.76Z" transform="translate(-50.12 -52.93)"/><path class="cls-1" d="M268.22,53.29h5.88V69.37h10.28v5.16H268.22V53.29Z" transform="translate(-50.12 -52.93)"/><path class="cls-1" d="M286.45,53.29h5.88v8.62l7.31-8.62h7l-8,9.13,8.31,12.1h-7.07l-5.34-7.89L292.34,69v5.49h-5.88V53.29Z" transform="translate(-50.12 -52.93)"/><polygon class="cls-2" points="185.7 56.83 193.23 56.83 189.47 47.64 185.7 56.83"/><path class="cls-2" d="M167.61,98.91H162.8v8.66h4.94c3.12,0,4.94-1.86,4.94-4.29V103.2C172.67,100.41,170.73,98.91,167.61,98.91Z" transform="translate(-50.12 -52.93)"/><path class="cls-2" d="M210,98.91h-6.19V107h6.32c3,0,4.78-1.62,4.78-4V103C214.93,100.29,213.07,98.91,210,98.91Z" transform="translate(-50.12 -52.93)"/><path class="cls-2" d="M292.16,98.54c-5,0-8.5,4-8.5,8.83v0.08a8.61,8.61,0,0,0,8.58,8.91c5,0,8.5-4,8.5-8.83v-0.08A8.61,8.61,0,0,0,292.16,98.54Z" transform="translate(-50.12 -52.93)"/><path class="cls-2" d="M325.23,98.91H319V107h6.32c3,0,4.78-1.62,4.78-4V103C330.13,100.29,328.27,98.91,325.23,98.91Z" transform="translate(-50.12 -52.93)"/><path class="cls-3" d="M221.25,102.71v-0.08a8.89,8.89,0,0,0-2.43-6.48c-1.86-1.86-4.66-2.87-8.26-2.87h-13v28.34h6.23v-9.07h4.9l6.07,9.07h7.29l-6.92-10.12A8.8,8.8,0,0,0,221.25,102.71Z" transform="translate(-50.12 -52.93)"/><path class="cls-3" d="M168.14,93.28H156.56v28.34h6.23v-8.5h4.74c6.36,0,11.46-3.4,11.46-10v-0.08C179,97.29,174.9,93.28,168.14,93.28Z" transform="translate(-50.12 -52.93)"/><rect class="cls-3" x="133.97" y="40.36" width="6.23" height="28.34"/><polygon class="cls-3" points="186.67 40.15 174.53 68.69 180.88 68.69 183.47 62.34 195.46 62.34 198.05 68.69 204.56 68.69 192.42 40.15 186.67 40.15"/><polygon class="cls-3" points="202.05 46.1 210.68 46.1 210.68 68.69 216.91 68.69 216.91 46.1 225.53 46.1 225.53 40.36 202.05 40.36 202.05 46.1"/><path class="cls-3" d="M142,104.66c-4.9-1.25-6.11-1.86-6.11-3.72v-0.08c0-1.38,1.25-2.47,3.64-2.47a13.3,13.3,0,0,1,7.37,2.79l3.24-4.7a16.41,16.41,0,0,0-10.53-3.6c-5.79,0-9.92,3.4-9.92,8.54v0.08c0,5.63,3.68,7.21,9.39,8.66,4.74,1.21,5.71,2,5.71,3.6v0.08c0,1.66-1.54,2.67-4.09,2.67a13,13,0,0,1-8.46-3.44l-3.68,4.41a18,18,0,0,0,12,4.53c6.11,0,10.4-3.16,10.4-8.78v-0.08C150.94,108.22,147.7,106.16,142,104.66Z" transform="translate(-50.12 -52.93)"/><polygon class="cls-3" points="59.21 57.2 72.57 57.2 72.57 51.65 59.21 51.65 59.21 45.9 74.39 45.9 74.39 40.36 53.02 40.36 53.02 68.69 74.59 68.69 74.59 63.15 59.21 63.15 59.21 57.2"/><path class="cls-3" d="M97.31,102.71v-0.08a8.9,8.9,0,0,0-2.43-6.48c-1.86-1.86-4.66-2.87-8.26-2.87h-13v28.34H79.9v-9.07h4.9l6.07,9.07h7.29L91.23,111.5A8.8,8.8,0,0,0,97.31,102.71Z" transform="translate(-50.12 -52.93)"/><path class="cls-3" d="M319.3,93.28H312.8v11A25.21,25.21,0,0,0,319.3,93.28Z" transform="translate(-50.12 -52.93)"/><path class="cls-3" d="M336.44,102.71v-0.08a9.84,9.84,0,0,0-1-4.49,25.26,25.26,0,0,1-10.91,15.3l5.47,8.17h7.29l-6.92-10.12A8.8,8.8,0,0,0,336.44,102.71Z" transform="translate(-50.12 -52.93)"/><polygon class="cls-3" points="302.27 51.73 295.51 40.36 288.23 40.36 299.12 57.52 299.12 68.69 305.35 68.69 305.35 57.4 316.24 40.36 309.16 40.36 302.27 51.73"/><path class="cls-3" d="M294.81,111.62H295a25.12,25.12,0,0,0,12.19-3.14c0-.35.05-0.69,0.05-1v-0.08c0-8.06-6.27-14.57-15-14.57s-15.1,6.6-15.1,14.65v0.08c0,8.06,6.27,14.57,15,14.57a15,15,0,0,0,12-5.59A25.19,25.19,0,0,1,294.81,111.62Z" transform="translate(-50.12 -52.93)"/><path class="cls-3" d="M312.8,121.62H319v-5.51a25.11,25.11,0,0,1-6.23,1.26v4.25Z" transform="translate(-50.12 -52.93)"/><path class="cls-2" d="M311.14,67A25.2,25.2,0,0,1,320,82.7H334.3A25.24,25.24,0,0,0,311.14,67Z" transform="translate(-50.12 -52.93)"/><path class="cls-2" d="M362,82.7H75.35a25.23,25.23,0,0,0,0,50.47H362A25.23,25.23,0,1,0,362,82.7ZM90.87,121.62l-6.07-9.07H79.9v9.07H73.67V93.28h13c3.6,0,6.4,1,8.26,2.87a8.9,8.9,0,0,1,2.43,6.48v0.08a8.8,8.8,0,0,1-6.07,8.78l6.92,10.12H90.87Zm33.84,0H103.13V93.28h21.37v5.55H109.33v5.75h13.36v5.55H109.33v6h15.38v5.55Zm26.23-8.38c0,5.63-4.29,8.78-10.4,8.78a18,18,0,0,1-12-4.53l3.68-4.41a13,13,0,0,0,8.46,3.44c2.55,0,4.09-1,4.09-2.67v-0.08c0-1.58-1-2.39-5.71-3.6-5.71-1.46-9.39-3-9.39-8.66v-0.08c0-5.14,4.13-8.54,9.92-8.54a16.41,16.41,0,0,1,10.53,3.6l-3.24,4.7a13.3,13.3,0,0,0-7.37-2.79c-2.39,0-3.64,1.09-3.64,2.47v0.08c0,1.86,1.21,2.47,6.11,3.72,5.75,1.5,9,3.56,9,8.5v0.08ZM179,103.16c0,6.56-5.1,10-11.46,10H162.8v8.5h-6.23V93.28h11.58c6.76,0,10.85,4,10.85,9.8v0.08Zm11.33,18.46h-6.23V93.28h6.23v28.34Zm24.49,0-6.07-9.07h-4.9v9.07h-6.23V93.28h13c3.6,0,6.4,1,8.26,2.87a8.89,8.89,0,0,1,2.43,6.48v0.08a8.8,8.8,0,0,1-6.07,8.78l6.92,10.12h-7.29Zm33.35,0-2.59-6.36h-12L231,121.62h-6.36l12.14-28.54h5.75l12.14,28.54h-6.52ZM275.65,99H267v22.59h-6.23V99h-8.62V93.28h23.48V99Zm16.51,23.07c-8.74,0-15-6.52-15-14.57v-0.08c0-8.06,6.36-14.65,15.1-14.65s15,6.52,15,14.57v0.08c0,0.35,0,.7-0.05,1a14.45,14.45,0,0,1-3.08,8A15,15,0,0,1,292.16,122.11Zm37.85-.49-5.47-8.17-0.6-.9H319v9.07H312.8V93.28h13c3.6,0,6.4,1,8.26,2.87a7.77,7.77,0,0,1,1.44,2,9.84,9.84,0,0,1,1,4.49v0.08a8.8,8.8,0,0,1-6.07,8.78l6.92,10.12H330Zm25.46-11.29v11.29h-6.23V110.45L338.34,93.28h7.29l6.76,11.37,6.88-11.37h7.08Z" transform="translate(-50.12 -52.93)"/><path class="cls-2" d="M86.09,98.91H79.9V107h6.32c3,0,4.78-1.62,4.78-4V103C91,100.29,89.13,98.91,86.09,98.91Z" transform="translate(-50.12 -52.93)"/></svg>