<?xml version="1.0" encoding="utf-8"?>
<!-- Generator: Adobe Illustrator 23.0.6, SVG Export Plug-In . SVG Version: 6.00 Build 0)  -->
<svg version="1.1" id="Layer_1" xmlns="http://www.w3.org/2000/svg" xmlns:xlink="http://www.w3.org/1999/xlink" x="0px" y="0px"
	 viewBox="0 0 438.1 534.5" style="enable-background:new 0 0 438.1 534.5;" xml:space="preserve">
<style type="text/css">
	.st0{fill:#FFFFFF;stroke:#FFFFFF;stroke-miterlimit:10;}
	.st1{fill:#467A7C;}
	.st2{fill:#00A03B;stroke:#FFFFFF;stroke-width:8;stroke-miterlimit:10;}
	.st3{fill:#F28D01;stroke:#FFFFFF;stroke-width:8;stroke-miterlimit:10;}
	.st4{fill:#FFFFFF;}
	.st5{fill:#9EC547;}
	.st6{fill:#009779;}
	.st7{fill:#9DC447;}
	.st8{fill:#00A03B;}
	.st9{fill:#F5D83E;}
	.st10{fill:#F6D83E;}
	.st11{fill:#005677;}
</style>
<title>teva-one-logo-orange</title>
<rect x="0.5" y="284.7" class="st0" width="437.1" height="196"/>
<circle class="st1" cx="140.6" cy="217.9" r="20.8"/>
<path class="st2" d="M223.7,380c0-44.9,0-89.7,0-134.6c0-12.6,5.3-17.1,17.8-15.2c50.8,7.9,101.6,15.8,152.3,23.7
	c13.3,2.1,18.4,8,18.5,21.5c0.1,66.5,0.2,133.1,0.3,199.6c0,4.6-0.1,9.1-0.3,13.7c-0.5,9.2-7.2,15.8-16.4,17.1
	c-13.9,1.9-27.8,4.3-41.7,6.4c-19,2.9-38.1,5.8-57.2,8.8c-13.9,2.2-27.7,4.6-41.6,6.7c-6.1,1.1-12.2,1.8-18.4,2.3
	c-8.2,0.4-12.4-3.6-13.2-11.9c-0.1-1.7-0.1-3.4-0.1-5.1L223.7,380z"/>
<path class="st3" d="M213.4,379.8v135.6c-0.1,11.7-5.9,16.6-17.6,14.7c-16.9-2.7-33.9-5.3-50.8-8.1c-22.9-3.7-45.7-7.7-68.6-11
	c-11.8-1.7-23.6-3.8-35.4-5.3c-10.1-1.3-16.3-8.8-16.3-19.8c0-63.2-0.1-126.3-0.1-189.5c0-7.6,0-15.2,0.1-22.9
	c0.1-10.7,5.3-17.3,15.9-19.1c27-4.5,54.1-8.6,81.1-12.9c25-3.9,50.1-7.8,75.2-11.7c10.6-1.7,16.5,3.2,16.5,14.1
	C213.4,289.3,213.4,334.6,213.4,379.8z"/>
<path class="st4" d="M45.4,340.6v18.7h-2.6v-18.7H45.4z"/>
<path class="st4" d="M53.5,342v3.9h3.8v1.9h-3.8v7.2c0,1.7,0.5,2.6,2,2.6c0.5,0,1,0,1.5-0.2l0.1,1.9c-0.8,0.2-1.6,0.4-2.4,0.3
	c-1,0.1-2.1-0.3-2.8-1c-0.8-1-1.1-2.3-1-3.5v-7.3h-2.3v-1.9h2.2v-3.3L53.5,342z"/>
<path class="st4" d="M66.9,359.3v-11.6h-2v-1.9h2v-0.6c-0.1-1.7,0.5-3.4,1.7-4.7c1-0.8,2.2-1.3,3.5-1.2c0.8,0,1.5,0.1,2.2,0.4
	l-0.3,1.9c-0.5-0.2-1.1-0.3-1.7-0.3c-2.2,0-2.8,1.8-2.8,3.9v0.7H73v1.9h-3.5v11.6H66.9z"/>
<path class="st4" d="M76.5,353.1c0.1,3.3,2.3,4.7,5,4.7c1.4,0,2.7-0.2,4-0.7l0.5,1.7c-1.5,0.6-3.2,0.9-4.8,0.9
	c-4.5,0-7.1-2.8-7.1-6.8s2.6-7.2,6.8-7.2c4.7,0,6,3.9,6,6.3c0,0.4,0,0.8-0.1,1.1L76.5,353.1z M84.2,351.3c0-1.5-0.7-4-3.6-4
	c-2.2,0.1-3.9,1.8-4,4H84.2z"/>
<path class="st4" d="M91.5,353.1c0,3.3,2.3,4.7,5,4.7c1.4,0,2.7-0.2,4-0.7l0.5,1.7c-1.5,0.6-3.2,0.9-4.8,0.9c-4.5,0-7.1-2.8-7.1-6.8
	s2.6-7.2,6.8-7.2c4.7,0,6,3.9,6,6.3c0,0.4,0,0.8-0.1,1.1L91.5,353.1z M99.2,351.3c0-1.5-0.7-4-3.6-4c-2.2,0.1-3.9,1.8-4,4H99.2z"/>
<path class="st4" d="M105.1,339.6h2.6v19.7h-2.6V339.6z"/>
<path class="st4" d="M111.8,356.9c1.1,0.6,2.3,1,3.5,1c1.9,0,2.8-0.9,2.8-2s-0.8-1.8-2.7-2.5c-2.6-0.9-3.9-2.2-3.9-3.8
	c0-2.2,1.9-3.9,5-3.9c1.2,0,2.5,0.3,3.6,0.8l-0.6,1.7c-0.9-0.5-1.9-0.8-3-0.8c-1.6,0-2.4,0.8-2.4,1.9s0.8,1.6,2.8,2.3
	c2.5,0.9,3.8,2,3.8,4c0,2.4-2,4-5.4,4c-1.4,0-2.8-0.3-4.1-0.9L111.8,356.9z"/>
<path class="st4" d="M142.9,345.9c-0.1,1-0.1,2-0.1,3.7v7.8c0,3.1-0.7,5-2.1,6.1c-1.5,1.1-3.4,1.7-5.2,1.6c-1.7,0-3.3-0.3-4.8-1.1
	l0.7-1.9c1.3,0.7,2.8,1.1,4.3,1.1c2.7,0,4.7-1.3,4.7-4.7v-1.5h-0.1c-1,1.5-2.8,2.4-4.6,2.3c-3.6,0-6.2-2.9-6.2-6.6
	c0-4.5,3.2-7.1,6.6-7.1c1.8-0.1,3.6,0.8,4.5,2.3h0l0.1-2L142.9,345.9z M140.2,351.2c0-0.4,0-0.7-0.1-1.1c-0.5-1.6-2-2.6-3.7-2.6
	c-2.5,0-4.3,2-4.3,5.1c0,2.6,1.5,4.8,4.3,4.8c1.6,0,3.1-1,3.7-2.5c0.1-0.4,0.2-0.9,0.2-1.3L140.2,351.2z"/>
<path class="st4" d="M160.3,352.5c0,5-3.7,7.1-7.2,7.1c-3.7,0.2-6.8-2.6-7-6.2c0-0.2,0-0.4,0-0.7c0-4.5,3.2-7.1,7.2-7.1
	c3.6-0.2,6.8,2.5,7,6.2C160.3,352,160.3,352.2,160.3,352.5z M148.8,352.7c0,3,1.8,5.2,4.4,5.2s4.4-2.2,4.4-5.2
	c0-2.3-1.2-5.1-4.4-5.1S148.8,350.1,148.8,352.7z"/>
<path class="st4" d="M176.8,352.5c0,5-3.7,7.1-7.2,7.1c-3.7,0.2-6.8-2.6-7-6.2c0-0.2,0-0.4,0-0.7c0-4.5,3.2-7.1,7.2-7.1
	c3.6-0.2,6.8,2.5,7,6.1C176.8,352,176.8,352.2,176.8,352.5z M165.3,352.7c0,3,1.8,5.2,4.4,5.2s4.4-2.2,4.4-5.2
	c0-2.3-1.2-5.1-4.4-5.1S165.3,350.1,165.3,352.7L165.3,352.7z"/>
<path class="st4" d="M192.7,339.6v16.2c0,1.2,0.1,2.5,0.1,3.5h-2.3l-0.1-2.3h-0.1c-1,1.7-2.9,2.7-4.9,2.6c-3.5,0-6.2-2.8-6.2-6.8
	c0-4.5,3-7.2,6.5-7.2c1.7-0.1,3.4,0.6,4.4,2h0.1v-8L192.7,339.6z M190.1,351.4c0-0.3,0-0.7-0.1-1c-0.5-1.7-2.1-2.9-3.8-2.8
	c-2.7,0-4.4,2.2-4.4,5.2c0,2.7,1.5,5,4.3,5c1.8,0,3.4-1.2,3.9-2.9c0.1-0.3,0.1-0.7,0.1-1V351.4z"/>
<path class="st4" d="M45.8,371v3.9h3.8v1.9h-3.8v7.2c0,1.7,0.5,2.6,2,2.6c0.5,0,1,0,1.5-0.2l0.1,1.9c-0.8,0.2-1.6,0.4-2.4,0.3
	c-1,0.1-2.1-0.3-2.8-1c-0.8-1-1.1-2.3-1-3.5v-7.3H41v-1.9h2.2v-3.3L45.8,371z"/>
<path class="st4" d="M65.6,381.5c0,5-3.7,7.1-7.2,7.1c-3.7,0.2-6.8-2.6-7-6.2c0-0.2,0-0.4,0-0.7c0-4.5,3.2-7.1,7.2-7.1
	c3.6-0.2,6.8,2.5,7,6.2C65.6,381,65.6,381.2,65.6,381.5z M54.1,381.7c0,3,1.8,5.2,4.4,5.2s4.4-2.2,4.4-5.2c0-2.3-1.2-5.1-4.4-5.1
	S54.1,379.1,54.1,381.7z"/>
<path class="st4" d="M75.1,388.3c0.1-0.9,0.1-2.3,0.1-3.5v-16.2h2.6v8.4h0.1c1.1-1.7,3-2.6,5-2.5c3.6,0,6.1,2.8,6.1,6.8
	c0,4.8-3.3,7.2-6.5,7.2c-2,0.1-3.9-0.8-4.9-2.5h-0.1l-0.1,2.2L75.1,388.3z M77.9,383c0,0.3,0,0.6,0.1,0.9c0.5,1.8,2.2,2.9,4,2.9
	c2.8,0,4.4-2.1,4.4-5.2c0-2.7-1.5-5-4.3-5c-1.9,0-3.5,1.2-4,3c-0.1,0.3-0.1,0.7-0.2,1L77.9,383z"/>
<path class="st4" d="M93.8,382.1c0.1,3.3,2.3,4.7,5,4.7c1.4,0,2.7-0.2,4-0.7l0.5,1.7c-1.5,0.6-3.2,0.9-4.8,0.9
	c-4.5,0-7.1-2.8-7.1-6.8s2.6-7.2,6.8-7.2c4.7,0,6,3.9,6,6.3c0,0.4,0,0.8-0.1,1.1L93.8,382.1z M101.6,380.3c0-1.5-0.7-4-3.6-4
	c-2.2,0.1-4,1.8-4.1,4H101.6z"/>
<path class="st4" d="M107.4,368.6h2.6v19.7h-2.6V368.6z"/>
<path class="st4" d="M127.6,381.5c0,5-3.7,7.1-7.2,7.1c-3.7,0.2-6.8-2.6-7-6.2c0-0.2,0-0.4,0-0.7c0-4.5,3.2-7.1,7.2-7.1
	c3.6-0.2,6.8,2.5,7,6.1C127.6,381,127.6,381.2,127.6,381.5z M116.1,381.7c0,3,1.8,5.2,4.4,5.2s4.4-2.2,4.4-5.2
	c0-2.3-1.2-5.1-4.4-5.1S116.1,379.1,116.1,381.7z"/>
<path class="st4" d="M130.9,378.5c0-1.4-0.1-2.5-0.1-3.6h2.3l0.1,2.2h0.1c1-1.6,2.9-2.6,4.8-2.5c2,0,5.1,1.1,5.1,5.7v8h-2.6v-7.7
	c0-2.2-0.9-4-3.4-4c-1.6,0-3,1-3.6,2.5c-0.1,0.4-0.2,0.7-0.2,1.1v8.1h-2.6V378.5z"/>
<path class="st4" d="M160.1,374.9c-0.1,1-0.1,2-0.1,3.7v7.8c0,3.1-0.7,5-2.1,6.1c-1.5,1.1-3.4,1.7-5.3,1.6c-1.7,0-3.3-0.3-4.8-1.1
	l0.7-1.9c1.3,0.7,2.8,1.1,4.3,1.1c2.7,0,4.7-1.3,4.7-4.7V386h-0.1c-1,1.5-2.8,2.4-4.6,2.3c-3.6,0-6.2-2.9-6.2-6.6
	c0-4.5,3.2-7.1,6.6-7.1c1.8-0.1,3.6,0.8,4.5,2.3h0.1l0.1-2L160.1,374.9z M157.4,380.2c0-0.4,0-0.7-0.1-1.1c-0.5-1.6-2-2.7-3.7-2.6
	c-2.5,0-4.3,2-4.3,5.1c0,2.6,1.5,4.8,4.3,4.8c1.6,0,3.1-1,3.7-2.5c0.1-0.4,0.2-0.9,0.2-1.3L157.4,380.2z"/>
<path class="st4" d="M163.3,386.9c0-0.9,0.7-1.7,1.7-1.8c0,0,0.1,0,0.1,0c1,0,1.7,0.8,1.7,1.8c0,1-0.8,1.7-1.8,1.7
	C164.1,388.6,163.3,387.8,163.3,386.9z"/>
<path class="st4" d="M169.5,386.9c0-0.9,0.7-1.7,1.7-1.8c0,0,0.1,0,0.1,0c1,0,1.7,0.8,1.7,1.8c0,1-0.8,1.7-1.8,1.7
	C170.3,388.6,169.5,387.8,169.5,386.9z"/>
<path class="st4" d="M175.7,386.9c0-0.9,0.7-1.7,1.7-1.7c0,0,0.1,0,0.1,0c1,0,1.7,0.8,1.7,1.8c0,1-0.8,1.7-1.8,1.7
	C176.5,388.6,175.7,387.9,175.7,386.9L175.7,386.9z"/>
<circle class="st1" cx="113.8" cy="125.6" r="20.4"/>
<circle class="st5" cx="119.8" cy="121.1" r="11.7"/>
<circle class="st5" cx="285.2" cy="149.2" r="16.7"/>
<circle class="st6" cx="290.1" cy="145.6" r="9.6"/>
<circle class="st6" cx="173.8" cy="18.4" r="18.4"/>
<circle class="st7" cx="179.1" cy="14.4" r="10.6"/>
<circle class="st1" cx="342.5" cy="118.2" r="17"/>
<circle class="st5" cx="347.5" cy="114.4" r="9.8"/>
<circle class="st1" cx="303.5" cy="207.3" r="18.6"/>
<circle class="st5" cx="309" cy="203.2" r="10.7"/>
<circle class="st1" cx="198.5" cy="169.2" r="16.8"/>
<circle class="st5" cx="203.4" cy="165.5" r="9.7"/>
<circle class="st8" cx="172.7" cy="161.4" r="14.9"/>
<circle class="st9" cx="177.1" cy="158.1" r="8.6"/>
<circle class="st8" cx="292.1" cy="70.2" r="20.5"/>
<circle class="st9" cx="298.1" cy="65.7" r="11.8"/>
<circle class="st8" cx="247.8" cy="197.1" r="15.8"/>
<circle class="st7" cx="252.4" cy="193.6" r="9.1"/>
<circle class="st10" cx="146.7" cy="213.4" r="12"/>
<circle class="st8" cx="191.3" cy="101.2" r="17.5"/>
<circle class="st11" cx="196.4" cy="97.3" r="10.1"/>
<path class="st4" d="M256,324.7h-17.4v-8.6h46.1v8.6h-17.5v47.7H256V324.7z"/>
<path class="st4" d="M287.3,354.9c0.3,7.4,6.5,10.6,13.6,10.6c4.1,0.1,8.2-0.6,12.1-1.9l1.6,7.1c-4.9,1.8-10.1,2.7-15.4,2.6
	c-14.3,0-22.6-8.2-22.6-20.6c0-11.2,7.4-21.9,21.5-21.9c14.3,0,19,10.9,19,19.8c0,1.5-0.1,2.9-0.4,4.3L287.3,354.9z M306.6,347.8
	c0-3.8-1.7-9.9-9.2-9.9c-6.9,0-9.7,5.8-10.2,9.9H306.6z"/>
<path class="st4" d="M327.8,331.7l7.1,20.7c1.3,3.6,2.2,6.9,3,10.2h0.3c0.8-3.4,1.8-6.6,3-10.2l7-20.7h11.7l-16.8,40.7h-11
	l-16.3-40.7H327.8z"/>
<path class="st4" d="M387.5,372.4l-0.8-4.5h-0.2c-2.7,3.2-7.3,5.5-13,5.5c-8.9,0-13.9-5.9-13.9-12.1c0-10.3,9.9-15.5,26.1-15.4v-0.7
	c0-2.7-1.1-7.1-8.9-7.1c-4.1,0-8.2,1-11.8,3l-2.2-6.7c4.9-2.5,10.4-3.7,15.9-3.6c14.1,0,18.1,8.2,18.1,17.2v14.7
	c-0.1,3.3,0.2,6.6,0.7,9.8L387.5,372.4z M386,352.5c-7.8-0.1-15.4,1.4-15.4,7.6c0,4,2.8,5.9,6.3,5.9c3.8,0.1,7.3-2.1,8.7-5.6
	c0.2-0.7,0.3-1.5,0.3-2.2V352.5z"/>
<path class="st0" d="M296.6,404.9c0,17.6-13,25.1-24.4,25.1c-13.2,0-23.3-9.5-23.3-24.3c0-16.1,11.4-25,24.1-25
	C287,380.7,296.6,390.5,296.6,404.9z M254,405.5c0,11.8,8.1,20.6,18.6,20.6s18.9-8.9,18.9-21c0-8.6-5.2-20.5-18.7-20.5
	C259.9,384.6,254,395.4,254,405.5z"/>
<path class="st0" d="M302.9,393.1c0-4.3-0.2-7.6-0.4-11.3h4.7l0.4,8.5h0.2c2.8-5.3,9.2-9.6,17.5-9.6c4.9,0,17.8,2.3,17.8,20V429h-5
	v-27.9c0-8.6-3.6-16.4-14.1-16.4c-6.9,0-13,4.4-15.3,10.9c-0.4,1.4-0.7,2.8-0.7,4.2V429h-5L302.9,393.1z"/>
<path class="st0" d="M354,404.9c0,15,8.9,21,19.4,21c7.4,0,11.3-1.4,14.2-2.7l1.3,3.7c-2,1-7.2,3-16.1,3c-14.6,0-23.7-9.9-23.7-23.7
	c0-15.7,9.7-25.6,22.9-25.6c16.7,0,19.8,14.5,19.8,21.3c0,1,0,1.9-0.2,2.9L354,404.9z M386.5,401.2c0.1-6.6-2.8-16.6-15.2-16.6
	c-11.2,0-16,9.3-17,16.6H386.5z"/>
</svg>
