<svg id="Layer_1" data-name="Layer 1" xmlns="http://www.w3.org/2000/svg" viewBox="0 0 316.31 108.97"><defs><style>.cls-1{fill:#00567a;}.cls-2{fill:#afcb37;}</style></defs><path class="cls-1" d="M20.65,61.09V5.38H.74C.28,5.38,0,5.29,0,4.72v-4C0,.28.19,0,.74,0H46.41c.65,0,.74.28.74.76v4c0,.57-.28.66-.74.66H26.51V61.09c0,.47-.19.76-.56.76H21.39C20.83,61.85,20.65,61.66,20.65,61.09Z"/><path class="cls-1" d="M78.56,37.39v3.9c0,.65-.19.93-.84.93H45c.56,8.56,5.49,15.44,16.46,15.44a30.32,30.32,0,0,0,13.21-2.88c.56-.28.74,0,.74.56V59c0,.66-.18.93-.65,1.12a40.92,40.92,0,0,1-13.57,2.7c-14.89,0-21.77-9.3-21.77-23,0-13.86,8.19-22.88,20.46-22.88C71,16.93,78.56,24.46,78.56,37.39Zm-33.67.18H73.16c.65-9.2-4.83-15.71-13.2-15.71C50.93,21.86,45.26,28.46,44.89,37.57Z"/><path class="cls-1" d="M97,61.15C90.28,47.66,85.26,32.5,81.45,18.83c-.19-.65.09-.93.74-.93h4.37c.65,0,.84.19,1,.84C91,30.65,95.21,44.22,100.7,56.31h.56a329.1,329.1,0,0,0,13.11-37.57c.19-.65.37-.84,1-.84h4.37c.66,0,.93.28.75.93-4.09,13.67-9.21,28.93-15.9,42.32a1,1,0,0,1-.93.65H97.91A1,1,0,0,1,97,61.15Z"/><path class="cls-1" d="M157.64,32.27V61.1c0,.56-.19.75-.75.75h-2.14c-.74,0-1-.1-1.11-.75L153,55.71c-2.52,4.65-7.82,7.07-14.51,7.07-10.79,0-16.65-5.3-16.65-14.42,0-7.72,4.74-12.74,14.32-12.74h15.91V32.18c0-7.26-3.45-10.14-12.37-10.14a92.28,92.28,0,0,0-11.82.84c-.46.09-.74,0-.74-.56V18.51c0-.47.09-.65.47-.75a84.1,84.1,0,0,1,12.83-.83C151.78,16.93,157.64,21.58,157.64,32.27Zm-5.58,8.19H135.69c-4.65,0-8.09,2.69-8.09,7.62,0,6.61,4.18,9.67,11.44,9.67,7.81,0,13-3.62,13-10Z"/><path class="cls-1" d="M269.65,34.69V60.45c0,.93-.28,1.3-1.3,1.3h-9c-1,0-1.3-.37-1.3-1.3v-26c0-5.58-2.33-8.28-8.37-8.28s-9.12,2.7-9.12,8.28v26c0,.93-.28,1.3-1.21,1.3h-9.11c-.93,0-1.3-.37-1.3-1.3V18.79c0-.84.37-1.12,1-1.12h6.6c.93,0,1.21.28,1.4,1l.93,4.28c2.51-4.09,7.53-6.42,15.16-6.42C264.44,16.55,269.65,22.88,269.65,34.69Z"/><path class="cls-1" d="M316.31,38.22v3.72c0,.75-.28,1.21-1.21,1.21H285.44c.93,7.07,5.67,10,14,10a44.93,44.93,0,0,0,13.39-2.23c.56-.28.93-.09.93.65v7.72c0,.75-.18,1.12-.93,1.3a49.68,49.68,0,0,1-14.32,2.24c-17.11,0-24.65-8.56-24.65-23S283,16.55,296.32,16.55C308.5,16.55,316.31,24.65,316.31,38.22Zm-30.78-2.88H305c.18-6.79-3.91-10.14-8.84-10.14C290.18,25.2,286.18,29.85,285.53,35.34Z"/><path class="cls-1" d="M193.28,12a19.39,19.39,0,1,1-19.39,19.39A19.41,19.41,0,0,1,193.28,12m0-12a31.39,31.39,0,1,0,31.38,31.39A31.39,31.39,0,0,0,193.28,0Z"/><circle class="cls-2" cx="193.28" cy="31.39" r="19.39" transform="translate(-2.04 45.25) rotate(-13.28)"/><path class="cls-1" d="M27.31,101.62V83.55H20.92c-.19,0-.29-.1-.29-.32v-2c0-.21.1-.32.29-.32H36.68c.19,0,.29.11.29.32v2c0,.22-.1.32-.29.32H30.29v18.07c0,.17-.08.26-.25.26H27.57A.23.23,0,0,1,27.31,101.62Z"/><path class="cls-1" d="M52.79,92.28v9.28c0,.21-.09.32-.29.32H50.29c-.24,0-.35-.11-.35-.32V92.31a3.54,3.54,0,0,0-.81-2.63,3.77,3.77,0,0,0-2.66-.77,4.51,4.51,0,0,0-2.91.81,3.21,3.21,0,0,0-1,2.63v9.21c0,.21-.1.32-.29.32H40.08c-.23,0-.35-.11-.35-.32V79.93c0-.22.12-.32.35-.32H42.3c.19,0,.29.1.29.32v8.24A4.53,4.53,0,0,1,44.5,86.8a7.72,7.72,0,0,1,2.84-.45C51,86.35,52.79,88.32,52.79,92.28Z"/><path class="cls-1" d="M68.37,88.25a7.66,7.66,0,0,1,1.78,5.38v1.25c0,.22-.09.32-.28.32h-11c.19,2.94,2,4.4,5.33,4.4a12.33,12.33,0,0,0,2.56-.29A11.06,11.06,0,0,0,69,98.64l.13,0c.08,0,.12.07.12.22v2.09a.37.37,0,0,1-.22.38,13,13,0,0,1-2.3.63,13.92,13.92,0,0,1-2.64.27q-4.11,0-6.07-2.09a8.21,8.21,0,0,1-2-5.84A9.07,9.07,0,0,1,57,90.08a6.73,6.73,0,0,1,2.62-2.79,7.63,7.63,0,0,1,3.9-1A6.31,6.31,0,0,1,68.37,88.25Zm-8,1.63a4.85,4.85,0,0,0-1.36,3H67.3a4.26,4.26,0,0,0-1.06-3.17,3.73,3.73,0,0,0-2.79-1.13A4.08,4.08,0,0,0,60.35,89.88Z"/><path class="cls-1" d="M81.68,83a1.73,1.73,0,0,1-.58-1.36,2,2,0,0,1,.54-1.4,1.92,1.92,0,0,1,1.42-.56,2,2,0,0,1,1.44.53,1.87,1.87,0,0,1,.55,1.4A1.9,1.9,0,0,1,84.5,83a1.85,1.85,0,0,1-1.41.56A2,2,0,0,1,81.68,83Zm-.13,18.54V87c0-.21.11-.32.35-.32h2.21c.2,0,.29.11.29.32v14.54c0,.21-.09.32-.29.32H81.9C81.66,101.88,81.55,101.77,81.55,101.56Z"/><path class="cls-1" d="M101,87.84a6.8,6.8,0,0,1,1.35,4.67v9c0,.21-.09.32-.29.32H99.81c-.24,0-.35-.11-.35-.32V92.31a3.54,3.54,0,0,0-.81-2.63A3.77,3.77,0,0,0,96,88.91a4.51,4.51,0,0,0-2.91.81,3.21,3.21,0,0,0-1,2.63v9.21c0,.21-.1.32-.29.32H89.6c-.23,0-.35-.11-.35-.32V87a.44.44,0,0,1,0-.23s.1-.06.21-.06h1.57a.26.26,0,0,1,.29.25l.32,1.61c.88-1.48,2.6-2.21,5.17-2.21A5.21,5.21,0,0,1,101,87.84Z"/><path class="cls-1" d="M120.73,79.93v21.63a.47.47,0,0,1,0,.25.25.25,0,0,1-.21.07H118.9a.33.33,0,0,1-.38-.32l-.39-2.09a4.77,4.77,0,0,1-2,2,6.55,6.55,0,0,1-3.2.75,7.53,7.53,0,0,1-3.8-1,6.68,6.68,0,0,1-2.63-2.76,8.92,8.92,0,0,1-1-4.21,8.64,8.64,0,0,1,1-4.27,7,7,0,0,1,2.73-2.74,7.7,7.7,0,0,1,3.77-1,7,7,0,0,1,2.88.55,5.15,5.15,0,0,1,1.94,1.47v-8.4c0-.22.11-.32.35-.32h2.21C120.64,79.61,120.73,79.71,120.73,79.93Zm-4,18.56A5.67,5.67,0,0,0,118,94.43v-.25A5.84,5.84,0,0,0,116.74,90a4.42,4.42,0,0,0-3.32-1.27,4.68,4.68,0,0,0-3.49,1.43,6.73,6.73,0,0,0,0,8.18,4.63,4.63,0,0,0,3.46,1.4A4.46,4.46,0,0,0,116.74,98.49Z"/><path class="cls-1" d="M136.38,88.25a7.66,7.66,0,0,1,1.78,5.38v1.25c0,.22-.1.32-.29.32h-11c.19,2.94,2,4.4,5.32,4.4a12.42,12.42,0,0,0,2.57-.29,10.74,10.74,0,0,0,2.18-.67l.13,0c.09,0,.13.07.13.22v2.09a.37.37,0,0,1-.23.38,12.61,12.61,0,0,1-2.29.63,13.94,13.94,0,0,1-2.65.27q-4.11,0-6.06-2.09a8.17,8.17,0,0,1-2-5.84,9.07,9.07,0,0,1,.93-4.19,6.71,6.71,0,0,1,2.61-2.79,7.68,7.68,0,0,1,3.9-1A6.34,6.34,0,0,1,136.38,88.25Zm-8,1.63a4.86,4.86,0,0,0-1.37,3h8.31a4.26,4.26,0,0,0-1.06-3.17,3.7,3.7,0,0,0-2.79-1.13A4.08,4.08,0,0,0,128.36,89.88Z"/><path class="cls-1" d="M154.91,88.37a8.15,8.15,0,0,1,2,5.87,9.06,9.06,0,0,1-1,4.27,6.56,6.56,0,0,1-2.6,2.74,7.69,7.69,0,0,1-6.75.32,5.26,5.26,0,0,1-2.06-1.55v8.15c0,.21-.11.32-.35.32H142c-.2,0-.29-.11-.29-.32V87a.42.42,0,0,1,.05-.26.25.25,0,0,1,.2-.06h1.58a.33.33,0,0,1,.38.32l.36,1.92a5.2,5.2,0,0,1,2.19-1.9,7.23,7.23,0,0,1,3.29-.73A6.85,6.85,0,0,1,154.91,88.37Zm-2.29,10a6,6,0,0,0,1.27-4.11,5.91,5.91,0,0,0-1.27-4.11,4.3,4.3,0,0,0-3.32-1.38,4.8,4.8,0,0,0-3.49,1.37,5.29,5.29,0,0,0-1.39,4v.26a5.47,5.47,0,0,0,1.36,4.12,4.88,4.88,0,0,0,3.52,1.3A4.26,4.26,0,0,0,152.62,98.35Z"/><path class="cls-1" d="M171.84,88.25a7.66,7.66,0,0,1,1.78,5.38v1.25c0,.22-.09.32-.29.32h-11c.19,2.94,2,4.4,5.33,4.4a12.4,12.4,0,0,0,2.56-.29,11.06,11.06,0,0,0,2.19-.67l.12,0c.09,0,.13.07.13.22v2.09a.37.37,0,0,1-.22.38,13,13,0,0,1-2.3.63,13.92,13.92,0,0,1-2.64.27c-2.74,0-4.77-.7-6.07-2.09a8.17,8.17,0,0,1-2-5.84,9.07,9.07,0,0,1,.93-4.19,6.67,6.67,0,0,1,2.62-2.79,7.63,7.63,0,0,1,3.9-1A6.33,6.33,0,0,1,171.84,88.25Zm-8,1.63a4.92,4.92,0,0,0-1.37,3h8.32a4.3,4.3,0,0,0-1.06-3.17,3.73,3.73,0,0,0-2.79-1.13A4.08,4.08,0,0,0,163.82,89.88Z"/><path class="cls-1" d="M188.58,87.84a6.8,6.8,0,0,1,1.35,4.67v9c0,.21-.1.32-.29.32h-2.22c-.23,0-.35-.11-.35-.32V92.31a3.58,3.58,0,0,0-.8-2.63,3.82,3.82,0,0,0-2.67-.77,4.46,4.46,0,0,0-2.9.81,3.21,3.21,0,0,0-1,2.63v9.21c0,.21-.1.32-.29.32h-2.21c-.24,0-.36-.11-.36-.32V87a.44.44,0,0,1,0-.23s.1-.06.21-.06h1.57A.26.26,0,0,1,179,87l.32,1.61c.88-1.48,2.6-2.21,5.17-2.21A5.25,5.25,0,0,1,188.58,87.84Z"/><path class="cls-1" d="M208.35,79.93v21.63a.44.44,0,0,1,0,.25s-.1.07-.21.07h-1.57c-.24,0-.37-.11-.39-.32l-.38-2.09a4.86,4.86,0,0,1-2,2,6.51,6.51,0,0,1-3.19.75,7.53,7.53,0,0,1-3.8-1,6.64,6.64,0,0,1-2.64-2.76,8.92,8.92,0,0,1-.94-4.21,8.54,8.54,0,0,1,1-4.27,6.92,6.92,0,0,1,2.73-2.74,7.68,7.68,0,0,1,3.77-1,7,7,0,0,1,2.87.55,5.08,5.08,0,0,1,1.94,1.47v-8.4c0-.22.12-.32.35-.32h2.22C208.25,79.61,208.35,79.71,208.35,79.93Zm-4,18.56a5.62,5.62,0,0,0,1.24-4.06v-.25A5.8,5.8,0,0,0,204.35,90,4.4,4.4,0,0,0,201,88.75a4.68,4.68,0,0,0-3.48,1.43,6.71,6.71,0,0,0,0,8.18,4.65,4.65,0,0,0,3.47,1.4A4.44,4.44,0,0,0,204.35,98.49Z"/><path class="cls-1" d="M224,88.25a7.66,7.66,0,0,1,1.79,5.38v1.25c0,.22-.1.32-.29.32h-11c.19,2.94,2,4.4,5.33,4.4a12.5,12.5,0,0,0,2.57-.29,11.16,11.16,0,0,0,2.18-.67l.13,0c.08,0,.12.07.12.22v2.09a.37.37,0,0,1-.22.38,12.84,12.84,0,0,1-2.29.63,14.1,14.1,0,0,1-2.65.27q-4.11,0-6.07-2.09a8.21,8.21,0,0,1-2-5.84,9,9,0,0,1,.94-4.19,6.71,6.71,0,0,1,2.61-2.79,7.63,7.63,0,0,1,3.9-1A6.31,6.31,0,0,1,224,88.25Zm-8,1.63a4.85,4.85,0,0,0-1.36,3h8.31a4.26,4.26,0,0,0-1.06-3.17,3.73,3.73,0,0,0-2.79-1.13A4.1,4.1,0,0,0,216,89.88Z"/><path class="cls-1" d="M240.73,87.84a6.8,6.8,0,0,1,1.35,4.67v9c0,.21-.1.32-.29.32h-2.21c-.24,0-.36-.11-.36-.32V92.31a3.54,3.54,0,0,0-.8-2.63,3.79,3.79,0,0,0-2.66-.77,4.47,4.47,0,0,0-2.91.81,3.21,3.21,0,0,0-1,2.63v9.21c0,.21-.09.32-.29.32h-2.21c-.24,0-.35-.11-.35-.32V87a.36.36,0,0,1,0-.23.25.25,0,0,1,.2-.06h1.58a.26.26,0,0,1,.29.25l.32,1.61c.87-1.48,2.6-2.21,5.16-2.21A5.25,5.25,0,0,1,240.73,87.84Z"/><path class="cls-1" d="M247.87,101a5.4,5.4,0,0,1-1.14-3.79v-8h-2c-.19,0-.29-.11-.29-.32V87.4c0-.25.1-.39.29-.41l2.12-.29.29-4q.06-.42.42-.42h1.73c.19,0,.29.11.29.32v4h4.52c.2,0,.29.11.29.32v1.86c0,.21-.09.32-.29.32h-4.52v7.7a3.39,3.39,0,0,0,.54,2.11,2.48,2.48,0,0,0,2,.69,11.18,11.18,0,0,0,2.21-.2h.07c.12,0,.19.08.19.23v1.86a.27.27,0,0,1-.19.26,9.62,9.62,0,0,1-2.73.32A5.09,5.09,0,0,1,247.87,101Z"/><path class="cls-1" d="M267.42,101.78a.74.74,0,0,1-.21-.32A143.64,143.64,0,0,1,263,87.05l0-.13c0-.15.12-.22.35-.22h2.19a.38.38,0,0,1,.41.35A104.62,104.62,0,0,0,269,99h.12l3.25-11.87a.52.52,0,0,1,.54-.42h2.25a.39.39,0,0,1,.42.32l3.46,12h.07a75,75,0,0,0,3-11.94.38.38,0,0,1,.42-.35h2.18c.28,0,.39.12.32.35a113.66,113.66,0,0,1-4.2,14.41q-.14.42-.45.42h-2.54a.53.53,0,0,1-.54-.42L274,90.07h-.19l-3.05,11.49a.4.4,0,0,1-.42.32h-2.6A.45.45,0,0,1,267.42,101.78Z"/><path class="cls-1" d="M298.2,87.64a5.77,5.77,0,0,1,1.33,4.19v9.73a.44.44,0,0,1,0,.25s-.1.07-.21.07H297.7c-.24,0-.37-.11-.39-.32L297,100a4.82,4.82,0,0,1-1.95,1.6,6.7,6.7,0,0,1-3,.61,5.77,5.77,0,0,1-4.12-1.41,4.79,4.79,0,0,1-1.49-3.63q0-4.43,5.17-4.43h5V91.67a2.58,2.58,0,0,0-.83-2.08,4.18,4.18,0,0,0-2.7-.71,18.77,18.77,0,0,0-4.23.39h-.1a.21.21,0,0,1-.23-.23v-2a.64.64,0,0,1,.05-.3c0-.06.1-.09.21-.12a18,18,0,0,1,2-.22c.88-.06,1.8-.1,2.76-.1C295.76,86.31,297.31,86.76,298.2,87.64ZM296.67,95h-4.39c-1.8,0-2.7.7-2.7,2.09a2.45,2.45,0,0,0,.83,1.92,3.49,3.49,0,0,0,2.41.74,4.11,4.11,0,0,0,2.83-.91,3.14,3.14,0,0,0,1-2.46Z"/><path class="cls-1" d="M316.31,87v15.92q0,6-6.13,6a21.52,21.52,0,0,1-4.88-.45c-.15,0-.22-.13-.22-.32v-2c0-.19.1-.26.29-.19a17.82,17.82,0,0,0,4.56.48,3.75,3.75,0,0,0,2.87-1,4.2,4.2,0,0,0,.88-2.92v-2.54q-1.38,2-4.75,2a5.54,5.54,0,0,1-4.14-1.44,6,6,0,0,1-1.41-4.34V87c0-.21.1-.32.29-.32h2.21c.24,0,.36.11.36.32v9a3.67,3.67,0,0,0,.81,2.65,3.53,3.53,0,0,0,2.56.82,4.31,4.31,0,0,0,2.87-.84,3.31,3.31,0,0,0,1-2.66V87c0-.21.09-.32.29-.32H316C316.2,86.7,316.31,86.81,316.31,87Z"/></svg>